PathFileType	4	(X/Y/Z)	Patient4_TMGait_0pt3_01_right_18.trc.trc
DataRate	CameraRate	NumFrames	NumMarkers	Units	OrigDataRate	OrigDataStartFrame	OrigNumFrames
51.282051282051	51.282051282051	4	33	mm	51.282051282051	1	       141
Frame#	Time	Sacral			L.Shoulder			Chest			R.Shoulder			Neck			R.ASIS			L.ASIS			R.Thigh.Superior			R.Thigh.Lateral			R.Thigh.Inferior			R.Patella			L.Thigh.Superior			L.Thigh.Lateral			L.Thigh.Inferior			L.Patella			L.Shank.Superior			L.Shank.Lateral			L.Shank.Inferior			R.Shank.Superior			R.Shank.Lateral			R.Shank.Inferior			R.Heel			R.Midfoot.Superior			R.Midfoot.Lateral			R.Toe			L.Heel			L.Midfoot.Lateral			L.Midfoot.Superior			L.Toe			L.Elbow			L.Wrist			R.Elbow			R.Wrist			
		X1	Y1	Z1	X2	Y2	Z2	X3	Y3	Z3	X4	Y4	Z4	X5	Y5	Z5	X6	Y6	Z6	X7	Y7	Z7	X8	Y8	Z8	X9	Y9	Z9	X10	Y10	Z10	X11	Y11	Z11	X12	Y12	Z12	X13	Y13	Z13	X14	Y14	Z14	X15	Y15	Z15	X16	Y16	Z16	X17	Y17	Z17	X18	Y18	Z18	X19	Y19	Z19	X20	Y20	Z20	X21	Y21	Z21	X22	Y22	Z22	X23	Y23	Z23	X24	Y24	Z24	X25	Y25	Z25	X26	Y26	Z26	X27	Y27	Z27	X28	Y28	Z28	X29	Y29	Z29	X30	Y30	Z30	X31	Y31	Z31	X32	Y32	Z32	X33	Y33	Z33	

1	32.570000000000	746.291075437362	997.871457978739	483.798372743474	915.972140193510	1432.710366917581	308.146677237625	1018.690436531521	1364.497669567957	469.710318845128	933.259303681019	1436.588978649491	642.360217132762	901.966735477145	1493.195040815792	465.599230239926	976.876799439459	938.522746469994	602.583237259259	965.977105784898	961.666448762399	328.571686210517	1036.411364830138	744.669019952356	579.508424361899	970.877352236634	629.943515010444	646.521745239329	1056.629018184722	577.390556655970	570.462602220800	1054.008953498851	464.840724683504	595.134193806449	1025.527153752394	752.326285698300	366.038786773286	946.850489803812	627.572447347815	310.502353378203	1033.530801817957	557.135754988438	379.749537037351	1036.581068540498	485.638892876841	391.106861649692	1005.399419247915	411.460248626966	385.803380728024	912.916563729928	299.646017519076	333.821824223730	952.847801495366	189.205922070145	412.032134973833	970.178853206065	400.621408624252	600.619938467524	841.086658839346	374.198155260801	651.165177182522	823.400620701991	263.479293875994	607.093834769389	621.743117659720	214.901119568098	559.105931029597	779.680556328242	148.914852331225	627.897960288252	667.188529880762	161.299398288730	646.214817938278	830.091482358129	36.913112129364	674.121068183825	815.909665253552	37.530912843444	451.439515980111	892.613712308335	35.433172297634	373.098228262494	975.444766735329	95.613835054120	403.682767340122	1104.494737552398	43.888676111074	379.281172302893	944.676160674781	1089.394562675233	169.471956264750	1091.338848387624	872.565532910943	190.835860849916	1006.672639574827	1093.210705337547	760.720847122190	1226.544624308633	949.349580193335	757.801445616339	
2	32.589500000000	745.281337422055	994.610197636145	480.268243856190	917.197494610723	1431.045120788985	307.911493824404	1017.864610937209	1361.881515389960	470.323990016670	930.229027714880	1432.273299964374	642.565682198029	901.559424978852	1490.783054516218	465.837151415957	975.412637797045	936.902339009008	600.525039947363	967.528869405568	959.989471711900	326.026240569865	1039.697404780179	746.044681695277	576.267795455971	977.768997648398	630.040714135379	643.121118230172	1064.214452920726	579.704749285785	566.163435249745	1064.644571163001	466.631442866756	590.634316378377	1027.225333698385	750.733803905457	365.521638978382	949.987067865286	625.025091430852	310.216622481855	1036.284447631623	555.356519765709	380.897203545145	1039.576781184840	483.362489832107	392.515358423167	1006.755278654438	408.859834337445	387.075034870296	912.695803208196	298.763300675604	334.477440159157	949.461891852735	187.772310279593	412.894520839125	980.878010231554	401.586616831504	596.994740884634	851.873523873507	375.070915551822	648.260501357991	834.088159804148	264.221872850192	604.481822715303	631.830577362676	214.619741622977	557.896840411866	790.836053909469	149.946577274551	625.460812013766	678.330980835390	161.499893342408	644.674229251188	842.637063930494	38.372955223179	671.659609496408	809.972270488415	37.594229837699	451.411261552805	886.741634071632	35.515919165273	373.147801607213	969.724393610710	95.456448313598	404.012888796508	1098.667007187314	43.472996045583	379.304880427535	955.660080920488	1089.843531029572	167.856525824001	1112.038124221902	880.832245701613	189.458463623977	987.745236098655	1085.142831749573	757.277879790325	1187.403282500198	921.574562287715	757.635930858061	
3	32.609000000000	744.252640777619	991.409183389880	476.721062383509	918.563323153482	1429.431818009762	307.759515824287	1017.067635415114	1359.276268195444	471.058679204643	927.119476809529	1427.965556810760	642.828618529044	901.192655953049	1488.405827164466	466.146596057979	973.857357001473	935.305731861904	598.565175212269	968.965966417149	958.265440583357	323.643650102992	1042.917919915625	747.548645392903	573.055748557212	984.717043114269	630.294401319099	639.768406819618	1071.775934736259	582.201023539737	561.847092420202	1075.369042144735	468.676952542317	586.168709010629	1028.831199442433	749.105819785088	365.058327918186	952.929605844070	622.495327600569	309.955399885711	1038.797169615351	553.546004534861	382.060293558900	1042.294131058910	481.069035977831	393.941528237821	1007.852583288096	406.270063612704	388.338218937473	912.225096370103	297.878835353998	335.142299317889	945.871329440227	186.345218587032	413.742731143840	991.852761176917	402.645126229877	593.443394390758	862.992107819219	375.654322867453	645.398681531524	845.469494342132	264.593449768940	601.960571517880	642.787298271535	213.231200013469	556.738365575260	803.056693608470	150.557478651520	623.198694422256	690.485801493235	160.857620743914	643.253766849277	856.608591650700	39.638907913779	669.444236955585	803.874762190562	37.650894758012	451.385628441983	880.710179376183	35.595330447989	373.193100309693	963.840526630704	95.296913675481	404.336746948003	1092.678048398764	43.062009543556	379.324217838946	966.918075435313	1090.541379529769	166.227250162219	1133.224357942452	889.811005730900	188.231776924803	968.166994251583	1077.267770116542	753.640694785693	1146.688421548864	894.420964594303	757.128705634003	
4	32.628500000000	743.237026539190	988.449462526708	473.262010676324	920.110816436461	1427.984342258391	307.746495548198	1016.344227447458	1356.813066782617	471.963807159027	923.993227703341	1423.862718984893	643.169772613322	900.908959326980	1486.193814457643	466.553960702513	972.230050044569	933.843260479151	596.834682798457	970.202345055493	956.571659724053	321.587309644156	1045.909380348131	749.213115537566	570.018346227657	991.466182894422	630.786498561620	636.626340988741	1079.014422722169	584.896057955335	557.698225864910	1085.831746273539	471.061419713117	581.944047390864	1030.214445320768	747.492190365731	364.700446035412	955.442621216374	620.104428357235	309.740788257062	1040.806177534261	551.764618430187	383.212698852014	1044.433180240125	478.846120626487	395.350087184404	1008.464475444965	403.807362327400	389.546108056213	911.349646743320	297.033976003822	335.793229887273	942.062142903220	184.989494877324	414.540254270401	1002.857546986354	403.839757393702	590.146823491023	874.270312930975	375.785974276860	642.730690297382	857.570680591253	264.429091070466	599.676227882150	654.813151471526	210.248661082864	555.719394812975	816.557404185359	150.550499963804	621.269299674709	703.886355649500	158.987890645014	642.066648105307	872.346319840004	40.638895497546	667.638061558716	797.721261918432	37.697918621063	451.362217422457	874.621710349940	35.666911267628	373.230936530895	957.888471319244	95.141830921639	404.638685512400	1086.628076647625	42.674364815926	379.337333019816	978.233900387861	1091.630188389147	164.645450798408	1154.442260906465	899.626185063406	187.292925118389	948.240857444953	1070.039269196443	749.862737160570	1105.037931084101	869.195037452950	756.135393271070	
